<svg width="412" height="412" viewBox="0 0 412 412" fill="none" xmlns="http://www.w3.org/2000/svg">
<circle cx="206" cy="183" r="125" fill="url(#paint0_radial_2_3)"/>
<path d="M108.818 319H101.714V285.496H114.674C116.306 285.496 117.762 285.752 119.042 286.264C120.322 286.744 121.394 287.448 122.258 288.376C123.154 289.304 123.826 290.424 124.274 291.736C124.722 293.048 124.946 294.52 124.946 296.152C124.946 298.52 124.434 300.552 123.41 302.248C122.386 303.944 120.93 305.064 119.042 305.608L125.618 319H117.746L112.13 306.568H108.818V319ZM112.946 301C114.642 301 115.81 300.68 116.45 300.04C117.122 299.4 117.458 298.344 117.458 296.872V295.432C117.458 293.96 117.122 292.904 116.45 292.264C115.81 291.624 114.642 291.304 112.946 291.304H108.818V301H112.946ZM143.647 319.576C139.167 319.576 135.855 318.056 133.711 315.016C131.599 311.976 130.543 307.72 130.543 302.248C130.543 296.776 131.599 292.52 133.711 289.48C135.855 286.44 139.167 284.92 143.647 284.92C148.127 284.92 151.423 286.44 153.535 289.48C155.679 292.52 156.751 296.776 156.751 302.248C156.751 307.72 155.679 311.976 153.535 315.016C151.423 318.056 148.127 319.576 143.647 319.576ZM143.647 313.768C145.695 313.768 147.103 313.016 147.871 311.512C148.671 309.976 149.071 307.848 149.071 305.128V299.32C149.071 296.632 148.671 294.536 147.871 293.032C147.103 291.496 145.695 290.728 143.647 290.728C141.599 290.728 140.175 291.496 139.375 293.032C138.607 294.536 138.223 296.632 138.223 299.32V305.176C138.223 307.864 138.607 309.976 139.375 311.512C140.175 313.016 141.599 313.768 143.647 313.768ZM164.844 319V285.496H172.092V313.096H186.492V319H164.844ZM206.009 319.576C201.529 319.576 198.217 318.056 196.073 315.016C193.961 311.976 192.905 307.72 192.905 302.248C192.905 296.776 193.961 292.52 196.073 289.48C198.217 286.44 201.529 284.92 206.009 284.92C210.489 284.92 213.785 286.44 215.897 289.48C218.041 292.52 219.113 296.776 219.113 302.248C219.113 307.72 218.041 311.976 215.897 315.016C213.785 318.056 210.489 319.576 206.009 319.576ZM206.009 313.768C208.057 313.768 209.465 313.016 210.233 311.512C211.033 309.976 211.433 307.848 211.433 305.128V299.32C211.433 296.632 211.033 294.536 210.233 293.032C209.465 291.496 208.057 290.728 206.009 290.728C203.961 290.728 202.537 291.496 201.737 293.032C200.969 294.536 200.585 296.632 200.585 299.32V305.176C200.585 307.864 200.969 309.976 201.737 311.512C202.537 313.016 203.961 313.768 206.009 313.768ZM225.863 285.496H236.663C241.175 285.496 244.519 286.936 246.695 289.816C248.871 292.696 249.959 296.84 249.959 302.248C249.959 307.656 248.871 311.8 246.695 314.68C244.519 317.56 241.175 319 236.663 319H225.863V285.496ZM236.183 313.336C238.327 313.336 239.895 312.648 240.887 311.272C241.879 309.896 242.375 307.896 242.375 305.272V299.176C242.375 296.584 241.879 294.6 240.887 293.224C239.895 291.848 238.327 291.16 236.183 291.16H232.967V313.336H236.183ZM257.812 319V285.496H279.22V291.4H265.012V299.08H278.74V304.984H265.012V313.096H279.22V319H257.812ZM313.521 319H305.313L301.857 312.328L299.505 307.048H299.073L296.673 312.328L293.121 319H285.585L294.993 301.672L286.209 285.496H294.417L297.153 290.824L299.601 296.2H299.985L302.481 290.824L305.361 285.496H312.897L304.113 301.768L313.521 319Z" fill="black"/>
<path d="M81.7811 334.455H85.2257L88.5424 340.719H88.6845L92.0012 334.455H95.4458L90.1404 343.858V349H87.0865V343.858L81.7811 334.455ZM100.713 349.213C99.6093 349.213 98.6552 348.979 97.8503 348.51C97.0501 348.036 96.4322 347.378 95.9966 346.536C95.561 345.688 95.3432 344.705 95.3432 343.588C95.3432 342.461 95.561 341.476 95.9966 340.634C96.4322 339.786 97.0501 339.128 97.8503 338.659C98.6552 338.186 99.6093 337.949 100.713 337.949C101.816 337.949 102.767 338.186 103.568 338.659C104.373 339.128 104.993 339.786 105.428 340.634C105.864 341.476 106.082 342.461 106.082 343.588C106.082 344.705 105.864 345.688 105.428 346.536C104.993 347.378 104.373 348.036 103.568 348.51C102.767 348.979 101.816 349.213 100.713 349.213ZM100.727 346.869C101.229 346.869 101.648 346.727 101.984 346.443C102.32 346.154 102.573 345.761 102.744 345.264C102.919 344.767 103.007 344.201 103.007 343.567C103.007 342.932 102.919 342.366 102.744 341.869C102.573 341.372 102.32 340.979 101.984 340.69C101.648 340.402 101.229 340.257 100.727 340.257C100.22 340.257 99.794 340.402 99.4483 340.69C99.1074 340.979 98.8494 341.372 98.6742 341.869C98.5037 342.366 98.4185 342.932 98.4185 343.567C98.4185 344.201 98.5037 344.767 98.6742 345.264C98.8494 345.761 99.1074 346.154 99.4483 346.443C99.794 346.727 100.22 346.869 100.727 346.869ZM116.045 344.355V338.091H119.07V349H116.166V347.018H116.052C115.806 347.658 115.396 348.171 114.823 348.56C114.255 348.948 113.561 349.142 112.742 349.142C112.013 349.142 111.372 348.976 110.818 348.645C110.264 348.313 109.83 347.842 109.518 347.232C109.21 346.621 109.054 345.889 109.049 345.037V338.091H112.075V344.497C112.079 345.141 112.252 345.65 112.593 346.024C112.934 346.398 113.391 346.585 113.964 346.585C114.329 346.585 114.669 346.502 114.987 346.337C115.304 346.166 115.56 345.915 115.754 345.584C115.953 345.252 116.05 344.843 116.045 344.355ZM122.491 349V338.091H125.424V339.994H125.537C125.736 339.317 126.07 338.806 126.539 338.46C127.008 338.11 127.547 337.935 128.158 337.935C128.31 337.935 128.473 337.944 128.648 337.963C128.823 337.982 128.977 338.008 129.11 338.041V340.726C128.968 340.683 128.771 340.645 128.52 340.612C128.269 340.579 128.04 340.562 127.831 340.562C127.386 340.562 126.989 340.66 126.638 340.854C126.293 341.043 126.018 341.308 125.814 341.649C125.616 341.99 125.516 342.383 125.516 342.828V349H122.491ZM142.516 349H137.36V334.455H142.559C144.022 334.455 145.281 334.746 146.337 335.328C147.393 335.906 148.205 336.737 148.773 337.821C149.346 338.905 149.633 340.203 149.633 341.713C149.633 343.228 149.346 344.53 148.773 345.619C148.205 346.708 147.388 347.544 146.323 348.126C145.262 348.709 143.993 349 142.516 349ZM140.435 346.365H142.388C143.297 346.365 144.062 346.204 144.682 345.882C145.307 345.555 145.776 345.051 146.089 344.369C146.406 343.683 146.564 342.797 146.564 341.713C146.564 340.638 146.406 339.76 146.089 339.078C145.776 338.396 145.31 337.894 144.689 337.572C144.069 337.25 143.305 337.089 142.395 337.089H140.435V346.365ZM152.854 349V338.091H155.879V349H152.854ZM154.374 336.685C153.924 336.685 153.538 336.536 153.216 336.237C152.899 335.934 152.74 335.572 152.74 335.151C152.74 334.734 152.899 334.376 153.216 334.078C153.538 333.775 153.924 333.624 154.374 333.624C154.824 333.624 155.207 333.775 155.524 334.078C155.846 334.376 156.007 334.734 156.007 335.151C156.007 335.572 155.846 335.934 155.524 336.237C155.207 336.536 154.824 336.685 154.374 336.685ZM164.218 353.318C163.238 353.318 162.397 353.183 161.697 352.913C161.001 352.648 160.447 352.286 160.035 351.827C159.623 351.367 159.355 350.851 159.232 350.278L162.03 349.902C162.116 350.12 162.251 350.323 162.435 350.513C162.62 350.702 162.864 350.854 163.167 350.967C163.474 351.086 163.849 351.145 164.289 351.145C164.947 351.145 165.489 350.984 165.915 350.662C166.346 350.345 166.562 349.812 166.562 349.064V347.068H166.434C166.301 347.371 166.102 347.658 165.837 347.928C165.572 348.197 165.231 348.418 164.814 348.588C164.398 348.759 163.901 348.844 163.323 348.844C162.504 348.844 161.758 348.654 161.086 348.276C160.418 347.892 159.885 347.307 159.488 346.521C159.095 345.731 158.898 344.732 158.898 343.524C158.898 342.288 159.099 341.256 159.502 340.428C159.904 339.599 160.439 338.979 161.107 338.567C161.779 338.155 162.516 337.949 163.316 337.949C163.927 337.949 164.438 338.053 164.85 338.261C165.262 338.465 165.593 338.721 165.844 339.028C166.1 339.331 166.296 339.63 166.434 339.923H166.547V338.091H169.552V349.107C169.552 350.035 169.324 350.811 168.87 351.436C168.415 352.061 167.786 352.53 166.981 352.842C166.18 353.16 165.26 353.318 164.218 353.318ZM164.282 346.571C164.769 346.571 165.181 346.45 165.518 346.209C165.858 345.963 166.119 345.612 166.299 345.158C166.483 344.698 166.576 344.149 166.576 343.51C166.576 342.871 166.486 342.317 166.306 341.848C166.126 341.375 165.866 341.008 165.525 340.747C165.184 340.487 164.769 340.357 164.282 340.357C163.785 340.357 163.366 340.491 163.025 340.761C162.684 341.027 162.426 341.396 162.251 341.869C162.075 342.343 161.988 342.89 161.988 343.51C161.988 344.14 162.075 344.684 162.251 345.143C162.43 345.598 162.689 345.951 163.025 346.202C163.366 346.448 163.785 346.571 164.282 346.571ZM172.959 349V338.091H175.985V349H172.959ZM174.479 336.685C174.029 336.685 173.644 336.536 173.322 336.237C173.004 335.934 172.846 335.572 172.846 335.151C172.846 334.734 173.004 334.376 173.322 334.078C173.644 333.775 174.029 333.624 174.479 333.624C174.929 333.624 175.313 333.775 175.63 334.078C175.952 334.376 176.113 334.734 176.113 335.151C176.113 335.572 175.952 335.934 175.63 336.237C175.313 336.536 174.929 336.685 174.479 336.685ZM185.211 338.091V340.364H178.642V338.091H185.211ZM180.133 335.477H183.159V345.648C183.159 345.927 183.201 346.145 183.286 346.301C183.372 346.453 183.49 346.559 183.642 346.621C183.798 346.682 183.978 346.713 184.181 346.713C184.323 346.713 184.465 346.701 184.607 346.678C184.749 346.649 184.858 346.628 184.934 346.614L185.41 348.865C185.258 348.912 185.045 348.967 184.771 349.028C184.496 349.095 184.162 349.135 183.769 349.149C183.04 349.178 182.401 349.08 181.852 348.858C181.307 348.635 180.883 348.29 180.58 347.821C180.277 347.352 180.128 346.76 180.133 346.045V335.477ZM191.293 349.206C190.597 349.206 189.977 349.085 189.432 348.844C188.887 348.598 188.457 348.235 188.139 347.757C187.827 347.274 187.671 346.673 187.671 345.953C187.671 345.347 187.782 344.838 188.004 344.426C188.227 344.014 188.53 343.683 188.914 343.432C189.297 343.181 189.733 342.991 190.22 342.864C190.713 342.736 191.229 342.646 191.769 342.594C192.403 342.527 192.914 342.466 193.303 342.409C193.691 342.348 193.973 342.258 194.148 342.139C194.323 342.021 194.411 341.846 194.411 341.614V341.571C194.411 341.121 194.269 340.773 193.985 340.527C193.705 340.281 193.307 340.158 192.791 340.158C192.247 340.158 191.814 340.278 191.492 340.52C191.17 340.757 190.957 341.055 190.852 341.415L188.054 341.188C188.196 340.525 188.476 339.952 188.892 339.469C189.309 338.981 189.846 338.607 190.504 338.347C191.167 338.081 191.934 337.949 192.806 337.949C193.412 337.949 193.992 338.02 194.546 338.162C195.104 338.304 195.599 338.524 196.03 338.822C196.466 339.121 196.809 339.504 197.06 339.973C197.311 340.437 197.436 340.993 197.436 341.642V349H194.567V347.487H194.482C194.307 347.828 194.072 348.129 193.779 348.389C193.485 348.645 193.132 348.846 192.72 348.993C192.308 349.135 191.833 349.206 191.293 349.206ZM192.159 347.118C192.604 347.118 192.997 347.03 193.338 346.855C193.679 346.675 193.947 346.434 194.141 346.131C194.335 345.828 194.432 345.484 194.432 345.101V343.943C194.337 344.005 194.207 344.062 194.041 344.114C193.88 344.161 193.698 344.206 193.494 344.249C193.291 344.286 193.087 344.322 192.884 344.355C192.68 344.384 192.495 344.41 192.33 344.433C191.975 344.485 191.664 344.568 191.399 344.682C191.134 344.795 190.928 344.949 190.781 345.143C190.635 345.333 190.561 345.57 190.561 345.854C190.561 346.266 190.71 346.58 191.009 346.798C191.312 347.011 191.695 347.118 192.159 347.118ZM203.809 334.455V349H200.784V334.455H203.809ZM212.919 349V334.455H218.657C219.76 334.455 220.7 334.665 221.477 335.087C222.253 335.503 222.845 336.083 223.252 336.827C223.664 337.565 223.87 338.418 223.87 339.384C223.87 340.349 223.662 341.202 223.245 341.94C222.829 342.679 222.225 343.254 221.434 343.666C220.648 344.078 219.696 344.284 218.579 344.284H214.921V341.82H218.082C218.674 341.82 219.161 341.718 219.545 341.514C219.933 341.306 220.222 341.019 220.411 340.655C220.606 340.286 220.703 339.862 220.703 339.384C220.703 338.901 220.606 338.479 220.411 338.119C220.222 337.755 219.933 337.473 219.545 337.274C219.157 337.071 218.664 336.969 218.068 336.969H215.994V349H212.919ZM229.836 342.693V349H226.811V334.455H229.751V340.016H229.879C230.125 339.372 230.523 338.867 231.072 338.503C231.622 338.134 232.31 337.949 233.139 337.949C233.897 337.949 234.557 338.115 235.121 338.446C235.689 338.773 236.129 339.244 236.442 339.859C236.759 340.47 236.915 341.202 236.91 342.054V349H233.885V342.594C233.89 341.921 233.719 341.398 233.373 341.024C233.032 340.65 232.554 340.463 231.939 340.463C231.527 340.463 231.162 340.551 230.845 340.726C230.532 340.901 230.286 341.157 230.106 341.493C229.931 341.824 229.841 342.224 229.836 342.693ZM245.22 349.213C244.117 349.213 243.163 348.979 242.358 348.51C241.558 348.036 240.94 347.378 240.504 346.536C240.069 345.688 239.851 344.705 239.851 343.588C239.851 342.461 240.069 341.476 240.504 340.634C240.94 339.786 241.558 339.128 242.358 338.659C243.163 338.186 244.117 337.949 245.22 337.949C246.324 337.949 247.275 338.186 248.075 338.659C248.88 339.128 249.501 339.786 249.936 340.634C250.372 341.476 250.59 342.461 250.59 343.588C250.59 344.705 250.372 345.688 249.936 346.536C249.501 347.378 248.88 348.036 248.075 348.51C247.275 348.979 246.324 349.213 245.22 349.213ZM245.235 346.869C245.736 346.869 246.155 346.727 246.492 346.443C246.828 346.154 247.081 345.761 247.252 345.264C247.427 344.767 247.514 344.201 247.514 343.567C247.514 342.932 247.427 342.366 247.252 341.869C247.081 341.372 246.828 340.979 246.492 340.69C246.155 340.402 245.736 340.257 245.235 340.257C244.728 340.257 244.302 340.402 243.956 340.69C243.615 340.979 243.357 341.372 243.182 341.869C243.012 342.366 242.926 342.932 242.926 343.567C242.926 344.201 243.012 344.767 243.182 345.264C243.357 345.761 243.615 346.154 243.956 346.443C244.302 346.727 244.728 346.869 245.235 346.869ZM256.583 342.693V349H253.557V338.091H256.441V340.016H256.568C256.81 339.381 257.215 338.879 257.783 338.51C258.351 338.136 259.04 337.949 259.85 337.949C260.607 337.949 261.268 338.115 261.831 338.446C262.395 338.777 262.833 339.251 263.145 339.866C263.458 340.477 263.614 341.206 263.614 342.054V349H260.588V342.594C260.593 341.926 260.423 341.405 260.077 341.031C259.731 340.652 259.255 340.463 258.649 340.463C258.242 340.463 257.882 340.551 257.57 340.726C257.262 340.901 257.021 341.157 256.845 341.493C256.675 341.824 256.587 342.224 256.583 342.693ZM271.97 349.213C270.848 349.213 269.882 348.986 269.072 348.531C268.267 348.072 267.647 347.423 267.211 346.585C266.776 345.742 266.558 344.746 266.558 343.595C266.558 342.473 266.776 341.488 267.211 340.641C267.647 339.793 268.26 339.133 269.051 338.659C269.846 338.186 270.779 337.949 271.849 337.949C272.569 337.949 273.239 338.065 273.859 338.297C274.484 338.524 275.029 338.867 275.493 339.327C275.961 339.786 276.326 340.364 276.586 341.06C276.847 341.751 276.977 342.561 276.977 343.489V344.32H267.765V342.445H274.129C274.129 342.009 274.034 341.623 273.845 341.287C273.656 340.951 273.393 340.688 273.057 340.499C272.725 340.304 272.339 340.207 271.899 340.207C271.44 340.207 271.032 340.314 270.677 340.527C270.327 340.735 270.052 341.017 269.854 341.372C269.655 341.723 269.553 342.113 269.548 342.544V344.327C269.548 344.866 269.648 345.333 269.846 345.726C270.05 346.119 270.336 346.422 270.706 346.635C271.075 346.848 271.513 346.955 272.02 346.955C272.356 346.955 272.664 346.907 272.943 346.812C273.222 346.718 273.461 346.576 273.66 346.386C273.859 346.197 274.011 345.965 274.115 345.69L276.913 345.875C276.771 346.547 276.48 347.134 276.04 347.636C275.604 348.134 275.041 348.522 274.349 348.801C273.663 349.076 272.87 349.213 271.97 349.213ZM280.008 349V334.455H283.034V339.923H283.126C283.259 339.63 283.451 339.331 283.702 339.028C283.957 338.721 284.289 338.465 284.696 338.261C285.108 338.053 285.619 337.949 286.23 337.949C287.025 337.949 287.759 338.157 288.432 338.574C289.104 338.986 289.641 339.608 290.044 340.442C290.446 341.27 290.648 342.31 290.648 343.56C290.648 344.777 290.451 345.804 290.058 346.642C289.67 347.475 289.14 348.107 288.467 348.538C287.8 348.964 287.051 349.178 286.223 349.178C285.636 349.178 285.136 349.08 284.724 348.886C284.317 348.692 283.983 348.448 283.723 348.155C283.462 347.857 283.264 347.556 283.126 347.253H282.991V349H280.008ZM282.97 343.545C282.97 344.194 283.06 344.76 283.24 345.243C283.42 345.726 283.68 346.102 284.021 346.372C284.362 346.637 284.776 346.77 285.264 346.77C285.756 346.77 286.173 346.635 286.514 346.365C286.855 346.09 287.113 345.712 287.288 345.229C287.468 344.741 287.558 344.18 287.558 343.545C287.558 342.916 287.47 342.362 287.295 341.884C287.12 341.405 286.862 341.031 286.521 340.761C286.18 340.491 285.761 340.357 285.264 340.357C284.772 340.357 284.355 340.487 284.014 340.747C283.678 341.008 283.42 341.377 283.24 341.855C283.06 342.333 282.97 342.897 282.97 343.545ZM298.595 349.213C297.492 349.213 296.538 348.979 295.733 348.51C294.933 348.036 294.315 347.378 293.879 346.536C293.444 345.688 293.226 344.705 293.226 343.588C293.226 342.461 293.444 341.476 293.879 340.634C294.315 339.786 294.933 339.128 295.733 338.659C296.538 338.186 297.492 337.949 298.595 337.949C299.699 337.949 300.65 338.186 301.45 338.659C302.255 339.128 302.876 339.786 303.311 340.634C303.747 341.476 303.965 342.461 303.965 343.588C303.965 344.705 303.747 345.688 303.311 346.536C302.876 347.378 302.255 348.036 301.45 348.51C300.65 348.979 299.699 349.213 298.595 349.213ZM298.61 346.869C299.111 346.869 299.53 346.727 299.867 346.443C300.203 346.154 300.456 345.761 300.627 345.264C300.802 344.767 300.889 344.201 300.889 343.567C300.889 342.932 300.802 342.366 300.627 341.869C300.456 341.372 300.203 340.979 299.867 340.69C299.53 340.402 299.111 340.257 298.61 340.257C298.103 340.257 297.677 340.402 297.331 340.69C296.99 340.979 296.732 341.372 296.557 341.869C296.387 342.366 296.301 342.932 296.301 343.567C296.301 344.201 296.387 344.767 296.557 345.264C296.732 345.761 296.99 346.154 297.331 346.443C297.677 346.727 298.103 346.869 298.61 346.869ZM311.861 349.213C310.758 349.213 309.804 348.979 308.999 348.51C308.199 348.036 307.581 347.378 307.145 346.536C306.709 345.688 306.492 344.705 306.492 343.588C306.492 342.461 306.709 341.476 307.145 340.634C307.581 339.786 308.199 339.128 308.999 338.659C309.804 338.186 310.758 337.949 311.861 337.949C312.964 337.949 313.916 338.186 314.716 338.659C315.521 339.128 316.141 339.786 316.577 340.634C317.012 341.476 317.23 342.461 317.23 343.588C317.23 344.705 317.012 345.688 316.577 346.536C316.141 347.378 315.521 348.036 314.716 348.51C313.916 348.979 312.964 349.213 311.861 349.213ZM311.875 346.869C312.377 346.869 312.796 346.727 313.132 346.443C313.468 346.154 313.722 345.761 313.892 345.264C314.067 344.767 314.155 344.201 314.155 343.567C314.155 342.932 314.067 342.366 313.892 341.869C313.722 341.372 313.468 340.979 313.132 340.69C312.796 340.402 312.377 340.257 311.875 340.257C311.369 340.257 310.942 340.402 310.597 340.69C310.256 340.979 309.998 341.372 309.823 341.869C309.652 342.366 309.567 342.932 309.567 343.567C309.567 344.201 309.652 344.767 309.823 345.264C309.998 345.761 310.256 346.154 310.597 346.443C310.942 346.727 311.369 346.869 311.875 346.869ZM322.939 345.861L322.946 342.232H323.387L326.881 338.091H330.354L325.659 343.574H324.942L322.939 345.861ZM320.198 349V334.455H323.223V349H320.198ZM327.016 349L323.806 344.249L325.823 342.111L330.56 349H327.016Z" fill="#858585"/>
<path d="M203.63 226.228C204.966 227.044 205.5 228.675 204.698 230.034C203.897 231.394 202.294 231.938 200.958 231.122L171.567 214.809C170.231 213.994 169.697 212.362 170.498 211.003C171.3 209.644 172.903 209.1 174.239 209.916L203.63 226.228Z" fill="#050D42"/>
<path d="M229.013 174.3V168.862C238.631 168.862 243.441 184.087 239.7 200.944C235.959 217.256 217.256 231.394 202.294 231.394V225.956C214.852 225.956 231.417 213.45 234.356 199.584C237.563 185.719 233.822 174.3 229.013 174.3ZM172.903 250.425H231.684C233.288 250.425 234.356 251.512 234.356 253.144C234.356 254.775 233.288 255.862 231.684 255.862H172.903C171.3 255.862 170.231 254.775 170.231 253.144C170.231 251.512 171.3 250.425 172.903 250.425Z" fill="#050D42"/>
<path d="M229.013 112.041C236.761 116.663 239.433 126.45 234.891 134.334L208.172 181.369L180.384 165.056L207.103 118.022C211.378 110.138 221.264 107.691 229.013 112.041Z" fill="#2F4BFF"/>
<path d="M176.109 168.862C174.506 167.775 173.705 165.872 174.239 164.784C174.773 163.697 176.911 163.153 178.781 164.241L209.508 182.456C211.111 183.544 211.913 185.447 211.378 186.534C210.577 187.894 208.706 188.166 206.836 187.078L176.109 168.862Z" fill="#050D42"/>
<path d="M179.85 171.309L203.095 184.903L199.088 191.972C198.286 193.331 196.683 193.603 195.347 193.059L176.911 182.184C175.575 181.369 175.308 179.738 175.842 178.378L179.85 171.309Z" fill="#2F4BFF"/>
<path d="M220.997 171.581C220.997 173.744 221.841 175.819 223.345 177.349C224.848 178.878 226.887 179.737 229.013 179.737C231.138 179.737 233.177 178.878 234.68 177.349C236.184 175.819 237.028 173.744 237.028 171.581C237.028 169.418 236.184 167.343 234.68 165.814C233.177 164.284 231.138 163.425 229.013 163.425C226.887 163.425 224.848 164.284 223.345 165.814C221.841 167.343 220.997 169.418 220.997 171.581Z" fill="#2F4BFF"/>
<path d="M199.622 236.831V253.144H204.966V236.831H199.622Z" fill="#050D42"/>
<path d="M191.606 228.675C191.606 230.103 191.883 231.517 192.42 232.837C192.957 234.156 193.744 235.355 194.737 236.365C195.729 237.375 196.907 238.176 198.204 238.722C199.501 239.269 200.89 239.55 202.294 239.55C203.697 239.55 205.087 239.269 206.384 238.722C207.68 238.176 208.859 237.375 209.851 236.365C210.843 235.355 211.631 234.156 212.168 232.837C212.705 231.517 212.981 230.103 212.981 228.675C212.981 225.791 211.855 223.025 209.851 220.985C207.847 218.946 205.128 217.8 202.294 217.8C199.459 217.8 196.741 218.946 194.737 220.985C192.732 223.025 191.606 225.791 191.606 228.675Z" fill="#2F4BFF"/>
<defs>
<radialGradient id="paint0_radial_2_3" cx="0" cy="0" r="1" gradientUnits="userSpaceOnUse" gradientTransform="translate(206 183) rotate(90) scale(125)">
<stop stop-color="#6B9AFF"/>
<stop offset="0.605769" stop-color="#A2BAEC" stop-opacity="0.58"/>
<stop offset="1" stop-color="#D9D9D9" stop-opacity="0"/>
</radialGradient>
</defs>
</svg>
